<?xml version="1.0" encoding="utf-8"?>
<!-- Generator: Adobe Illustrator 27.2.0, SVG Export Plug-In . SVG Version: 6.00 Build 0)  -->
<svg version="1.1" xmlns="http://www.w3.org/2000/svg" xmlns:xlink="http://www.w3.org/1999/xlink" x="0px" y="0px"
	 viewBox="0 0 587.35 266.65" style="enable-background:new 0 0 587.35 266.65;" xml:space="preserve">
<g id="Crown">
	<path d="M121.42,136.33c-3.66-1.96-4.63-4.82-1.32-9.13l2.63-2.97c1.03-1.37,1.21-2.64,0.56-3.8c-0.45-2.4,0.47-3.39,2.63-3.08
		c6.39,1.52,12.58,1.78,18.53,0.47c3.33-1.23,4.38,0.17,3.29,4.03c0.28,1.64,0.96,2.62,1.79,3.32l2.92,3.68
		c1.25,2.92,1.19,5.15-1.13,6.17C143.38,138.65,132.9,138.29,121.42,136.33z"/>
	<path d="M120.31,136.7c10.15,3.59,20.63,3.16,31.33,0c0,0,2.07,1.07,3.29,1.54c1.22,0.47,0.47,1.9,0.47,1.9
		c-0.93,2.71-3.72,4.35-7.43,5.46c-4.77,1.22-11.32,1.42-18.81,1.07c-6.95-0.9-10.79-3.32-12.79-6.64
		c-0.25-1.17,0.08-1.82,0.75-2.14L120.31,136.7z"/>
	<path d="M129.25,77.03h12.73c-1.85,9.79-1.92,19.74,1.13,29.97l2.95,7.75c-6.33,2.41-13.32,2.13-20.76,0l3.07-7.59
		C131.32,98.61,131.51,88.51,129.25,77.03z"/>
	<path d="M143.84,76.3h-16.33c-1.22,0-2.21-0.99-2.21-2.21l0,0c0-1.22,0.99-2.21,2.21-2.21h16.33c1.22,0,2.21,0.99,2.21,2.21l0,0
		C146.06,75.31,145.06,76.3,143.84,76.3z"/>
	<path d="M143.12,70.54h-14.81c-0.81,0-1.46-0.66-1.46-1.46v0c0-0.81,0.66-1.46,1.46-1.46h14.81c0.81,0,1.46,0.66,1.46,1.46v0
		C144.58,69.88,143.92,70.54,143.12,70.54z"/>
	<rect x="129.21" y="65.01" width="13.01" height="2.06"/>
	<path d="M142.43,64.37h-13.51c-0.44,0-0.8-0.45-0.8-1.01c0-0.56,0.36-1.01,0.8-1.01h13.51c0.44,0,0.8,0.45,0.8,1.01
		C143.23,63.92,142.88,64.37,142.43,64.37z"/>
	<path d="M129.66,55.64l-0.17,6.07h12.54l-0.24-6.07c0.95-2.14,2.14-4.1,3.48-5.93l-0.33-0.59c-1.84,2.03-2.94,1.97-3.2-0.53
		l-0.99-0.36c-1.82,2.7-3.32,3.07-4.28-0.36l-0.19-0.77l-1.03,0c-0.78,3.65-2.26,4.19-4.52,1.3l-0.94,0.06
		c-0.32,2.61-1.43,2.8-3.29,0.65l-0.42,0.47C127.53,51.55,128.75,53.56,129.66,55.64z"/>
	<path d="M135.21,45.58c0.38,0.01,0.75,0.01,1.13,0.02c0.41,1.69,0.97,3.1,1.92,3.38c1.08,0.32,2.2-0.7,2.53-2.14l1.07,0.34
		c-0.68-3.15-2.36-4.87-4.77-5.56l-0.19-1.27c1.29-1.1,1.34-2.7,0-4.27c-0.8-0.41-1.55-0.38-2.26,0c-1.21,1.7-1.12,3.18,0.16,4.43
		l-0.16,1.12c-2.61,0.35-4.05,2.45-4.83,5.55l1.07-0.22C133.01,50.06,134.45,49.6,135.21,45.58z"/>
</g>
<g id="Layer_2">
	<g>
		<g>
			<path d="M112,117.41h2.18v5.67c-1.65,1.37-3.63,2.77-5.93,4.2c-2.3,1.44-4.84,2.65-7.59,3.63c-2.76,0.98-5.66,1.47-8.7,1.47
				c-6.06,0-11.36-1.25-15.89-3.73c-4.54-2.49-8.06-6.11-10.56-10.86c-2.5-4.75-3.75-10.48-3.75-17.19c0-6.49,1.32-12.13,3.95-16.94
				c2.63-4.81,6.24-8.53,10.82-11.16c4.58-2.63,9.78-3.95,15.62-3.95c2.1,0,4.44,0.18,7,0.53c2.56,0.36,5.06,0.77,7.49,1.26
				c2.43,0.48,4.47,0.94,6.12,1.37v15.62h-4.99l-1.66-8.75c-0.09-0.45-0.34-0.84-0.77-1.15c-0.43-0.31-0.88-0.58-1.37-0.81
				c-1.79-0.91-3.73-1.61-5.8-2.11c-2.08-0.5-4.34-0.75-6.78-0.75c-5.83,0-10.58,2.06-14.25,6.17c-3.67,4.11-5.5,10.38-5.5,18.79
				c0,8.9,1.96,15.62,5.89,20.16c3.93,4.54,9.6,6.81,17.02,6.81c2.47,0,4.69-0.38,6.66-1.15c1.96-0.77,3.81-1.78,5.55-3.03
				C108.44,120.25,110.21,118.89,112,117.41z"/>
			<path d="M122.84,131.06v-3.2l6.57-2.09c0.48-0.14,0.87-0.38,1.17-0.7c0.3-0.33,0.45-0.8,0.45-1.43V77.22
				c0-0.6-0.16-1.05-0.47-1.37s-0.7-0.54-1.15-0.68l-6.57-2.18v-3.11h25c4.66,0,8.47,0.46,11.41,1.37c2.94,0.91,5.22,2.12,6.83,3.63
				c1.61,1.51,2.72,3.17,3.33,4.99c0.61,1.82,0.92,3.66,0.92,5.5c0,3.33-0.74,6.18-2.22,8.55c-1.48,2.38-3.31,4.26-5.5,5.65
				c-2.19,1.39-4.37,2.33-6.53,2.82l-6.91,2.82l-9.81-2.01l0.38-4.57c0.26,0.09,0.87,0.18,1.83,0.28c0.97,0.1,2,0.18,3.09,0.23
				c1.09,0.06,1.96,0.09,2.58,0.09c3.07,0,5.6-0.56,7.59-1.69c1.99-1.12,3.48-2.61,4.46-4.46c0.98-1.85,1.47-3.83,1.47-5.93
				c0-4.27-1.22-7.36-3.67-9.28c-2.45-1.92-6.03-2.88-10.75-2.88h-6.36v48.64c0,0.63,0.16,1.1,0.47,1.43
				c0.31,0.33,0.7,0.56,1.15,0.7l6.74,2.09v3.2H122.84z M182.36,131.06h-10.33c-1.91,0-3.33-0.16-4.27-0.49
				c-0.94-0.33-1.74-0.89-2.39-1.69c-0.65-0.8-1.49-1.91-2.52-3.33l-15.32-21.12l8.66-2.69l16.08,21.33c0.31,0.46,0.82,1,1.51,1.64
				c0.7,0.64,1.36,1.05,1.98,1.22l6.57,1.92V131.06z"/>
			<path d="M215.64,132.47c-6.31,0-11.67-1.31-16.06-3.93c-4.39-2.62-7.74-6.32-10.03-11.11c-2.29-4.79-3.43-10.47-3.43-17.05
				c0-6.2,1.18-11.7,3.54-16.49c2.36-4.79,5.75-8.56,10.18-11.31c4.42-2.74,9.72-4.12,15.89-4.12c6.71,0,12.25,1.4,16.6,4.2
				c4.35,2.8,7.59,6.61,9.71,11.41c2.12,4.81,3.18,10.24,3.18,16.3c0,4.04-0.57,7.97-1.71,11.8c-1.14,3.83-2.89,7.27-5.27,10.33
				c-2.38,3.06-5.43,5.48-9.17,7.28C225.31,131.57,220.84,132.47,215.64,132.47z M216.4,127.44c4.18,0,7.68-1.08,10.5-3.24
				c2.82-2.16,4.93-5.17,6.34-9.02c1.41-3.85,2.11-8.3,2.11-13.33c0-5.8-0.75-10.82-2.24-15.06c-1.49-4.24-3.75-7.51-6.78-9.81
				c-3.03-2.3-6.86-3.46-11.5-3.46c-4.44,0-8.04,1.15-10.82,3.46c-2.77,2.3-4.81,5.38-6.1,9.22c-1.29,3.84-1.94,8.06-1.94,12.67
				c0,5.72,0.73,10.72,2.2,15c1.46,4.28,3.71,7.62,6.74,10.01C207.93,126.24,211.77,127.44,216.4,127.44z"/>
			<path d="M273.36,131.66L256.64,77.6c-0.2-0.71-0.48-1.29-0.85-1.75c-0.37-0.46-0.81-0.78-1.32-0.98l-4.22-1.88v-3.11h22.19v3.11
				l-7.3,2.52l11.73,37.42l1.41,6.31h0.77l12.12-37.25l4.52-11.14h6.14l13.48,41.94l1.62,6.53h0.68l14.08-43.56l-7.42-2.77v-3.11
				h19.33v3.11L339.41,75c-0.46,0.2-0.88,0.51-1.28,0.92c-0.4,0.41-0.68,0.86-0.85,1.34l-14.51,43.39l-4.39,11.01h-6.27
				l-13.61-42.54l-1.45-5.76h-0.64l-12.2,37.29l-4.48,11.01H273.36z"/>
			<path d="M348.8,131.06v-3.2l6.57-2.39c0.48-0.17,0.88-0.41,1.17-0.73s0.45-0.77,0.45-1.37V77.26c0-0.6-0.16-1.05-0.47-1.37
				c-0.31-0.31-0.7-0.54-1.15-0.68l-6.83-2.22v-3.11h17.54l29.61,42.2l3.29,5.5h0.68V77.43c0-0.6-0.17-1.03-0.51-1.3
				c-0.34-0.27-0.74-0.49-1.2-0.66l-6.48-2.47v-3.11h22.06v3.11l-6.53,2.47c-0.37,0.14-0.74,0.36-1.11,0.66
				c-0.37,0.3-0.55,0.73-0.55,1.3v44.16l-1.28,9.9h-5.08l-32.21-45.74l-3.29-5.59h-0.68v43.22c0,0.63,0.17,1.1,0.51,1.41
				c0.34,0.31,0.71,0.54,1.11,0.68l6.44,2.39v3.2H348.8z"/>
			<path d="M422.1,131.06v-3.2l6.57-2.09c0.48-0.14,0.88-0.38,1.17-0.7c0.3-0.33,0.45-0.8,0.45-1.43V77.22
				c0-0.6-0.16-1.05-0.47-1.37c-0.31-0.31-0.7-0.54-1.15-0.68l-6.57-2.18v-3.11h47.49v15.19h-5.03l-1.66-8.41
				c-0.11-0.51-0.33-0.9-0.64-1.17c-0.31-0.27-0.71-0.41-1.2-0.41h-21.8v21.55h13.1c0.57,0,0.99-0.12,1.26-0.36s0.46-0.63,0.58-1.17
				l1.54-6.74h4.1v21.8h-4.1l-1.54-6.7c-0.11-0.54-0.31-0.95-0.58-1.22c-0.27-0.27-0.69-0.41-1.26-0.41h-13.1v24.02h25.13
				c0.43,0,0.8-0.14,1.13-0.43c0.33-0.28,0.53-0.68,0.62-1.19l1.71-9.39h4.99v16.21H422.1z"/>
			<path d="M482.6,131.06v-3.2l6.57-2.09c0.46-0.14,0.84-0.38,1.15-0.7c0.31-0.33,0.47-0.8,0.47-1.43V77.22
				c0-0.6-0.16-1.05-0.47-1.37c-0.31-0.31-0.7-0.54-1.15-0.68l-6.57-2.18v-3.11h27.99c2.45,0,5.06,0.28,7.83,0.85
				c2.77,0.57,5.51,1.54,8.21,2.9s5.16,3.23,7.36,5.59c2.2,2.36,3.97,5.31,5.29,8.83c1.32,3.53,1.98,7.75,1.98,12.67
				c0,6.97-1.39,12.69-4.16,17.17c-2.77,4.48-6.49,7.79-11.16,9.94c-4.67,2.15-9.84,3.22-15.53,3.22H482.6z M499.75,75v50.94h10.88
				c7.14,0,12.37-2.09,15.7-6.27c3.33-4.18,4.99-10.07,4.99-17.66c0-5.57-0.96-10.37-2.88-14.4c-1.92-4.02-4.63-7.13-8.13-9.32
				c-3.5-2.19-7.61-3.29-12.33-3.29H499.75z"/>
		</g>
	</g>
</g>
</svg>
