<?xml version="1.0" encoding="utf-8"?>
<!-- Generator: Adobe Illustrator 27.2.0, SVG Export Plug-In . SVG Version: 6.00 Build 0)  -->
<svg version="1.1" id="Layer_1" xmlns="http://www.w3.org/2000/svg" xmlns:xlink="http://www.w3.org/1999/xlink" x="0px" y="0px"
	 viewBox="0 0 90 90.6" style="enable-background:new 0 0 90 90.6;" xml:space="preserve">
<g transform="translate(1.4065934065934016 1.4065934065934016) scale(2.81 2.81)">
	<path d="M22.1,29.4h-11c-4.9,0-8.8-4.1-8.8-9.1V9.1c0-5,4-9.1,8.8-9.1h11c4.9,0,8.8,4.1,8.8,9.1v11.3C30.9,25.3,27,29.4,22.1,29.4z
		 M11.2,2.3c-3.6,0-6.6,3-6.6,6.8v11.3c0,3.7,3,6.8,6.6,6.8h11c3.6,0,6.6-3,6.6-6.8V9.1c0-3.7-3-6.8-6.6-6.8
		C22.2,2.3,11.2,2.3,11.2,2.3z"/>
	<path d="M16.7,23c-4.4,0-8-3.7-8-8.2s3.6-8.2,8-8.2s8,3.7,8,8.2S21.1,23,16.7,23z M16.7,8.8c-3.2,0-5.8,2.7-5.8,5.9
		s2.6,5.9,5.8,5.9s5.8-2.7,5.8-5.9S19.9,8.8,16.7,8.8z"/>
	<ellipse cx="24.7" cy="6" rx="1.4" ry="1.3"/>
</g>
</svg>
