<?xml version="1.0" encoding="utf-8"?>
<!-- Generator: Adobe Illustrator 27.2.0, SVG Export Plug-In . SVG Version: 6.00 Build 0)  -->
<svg version="1.1" xmlns="http://www.w3.org/2000/svg" xmlns:xlink="http://www.w3.org/1999/xlink" x="0px" y="0px"
	 viewBox="0 0 134.9 109.7" style="enable-background:new 0 0 134.9 109.7;" xml:space="preserve">
<style type="text/css">
	.st0{display:none;}
	.st1{fill:#231F20;}
</style>
<g id="Layer_1" class="st0">
	
		<image style="display:inline;overflow:visible;" width="122" height="100" xlink:href="../../../../OneDrive/Desktop/FIP_images/Twitter-logo.png"  transform="matrix(0.75 0 0 0.75 26.332 20.4834)">
	</image>
</g>
<g id="Layer_2">
	<path class="st1" d="M108.6,39.2l9.2-9.3l-11.3,2.4c3.1-3.6,5.9-6.8,8.1-9.3L103.3,27c-16.5-13.1-33.1-2.6-32.6,16.4
		c-17.1-1.7-29.5-8-37.6-18.5c-4.2,6.9-3.8,14.7,4.8,23.9L29.8,47c1.9,9.3,6.2,16,14.9,17.9l-8.1,1.5c4.5,7.7,9.8,12.6,17,11.7
		c-7.2,7.2-16.8,9-27.3,8.4C66.3,102.5,105.3,90.7,108.6,39.2z"/>
</g>
</svg>
